<svg xmlns="http://www.w3.org/2000/svg" width="670.006" height="158.5" viewBox="0 0 670.006 158.5">
  <g id="Group_49" data-name="Group 49" transform="translate(-523 -2109)">
    <rect id="Rectangle_60" data-name="Rectangle 60" width="670.006" height="158.5" rx="17" transform="translate(523 2109)" fill="#fff"/>
    <g id="Logo_COLOR_H" data-name="Logo COLOR H" transform="translate(547.499 2127.56)">
      <path id="Path_12" data-name="Path 12" d="M270.13,471.417h18.278v51.989h14.543V471.417h18.278V458.64h-51.1Z" transform="translate(-130.576 -428.907)" fill="#6fc05a"/>
      <path id="Path_13" data-name="Path 13" d="M391.738,497.593a16.466,16.466,0,0,1-1.552,7.424,10.824,10.824,0,0,1-4.655,4.818,15.664,15.664,0,0,1-7.543,1.685,15.4,15.4,0,0,1-7.5-1.685,11.358,11.358,0,0,1-4.7-4.833,15.783,15.783,0,0,1-1.641-7.424V458.64H349.6v38.419a31.847,31.847,0,0,0,3.281,14.907,23.014,23.014,0,0,0,9.651,9.755q6.333,3.467,15.479,3.46t15.523-3.46a23.014,23.014,0,0,0,9.584-9.755,31.755,31.755,0,0,0,3.281-14.907V458.64H391.738Z" transform="translate(-151.048 -428.907)" fill="#6fc05a"/>
      <path id="Path_14" data-name="Path 14" d="M487.685,493.012a20.7,20.7,0,0,0,3.237-11.93v-1.418a21.366,21.366,0,0,0-3.192-12.027,19.54,19.54,0,0,0-9.139-7.275,36.793,36.793,0,0,0-14.016-2.435H439.11V523.22h14.551V502.433H464.2l14.217,20.787h16.86l-16.548-23.185a19.369,19.369,0,0,0,8.961-7.023Zm-12.821-6.919a9.361,9.361,0,0,1-3.638,3.638,11.083,11.083,0,0,1-5.471,1.284H453.661V470.228h12.094a11.137,11.137,0,0,1,5.5,1.284,9.413,9.413,0,0,1,3.638,3.638,11.136,11.136,0,0,1,1.329,5.546,10.735,10.735,0,0,1-1.359,5.4Z" transform="translate(-174.107 -428.721)" fill="#6fc05a"/>
      <path id="Path_15" data-name="Path 15" d="M560.427,470.711V458.64H521.57v64.766h14.551v-26l23.244-.082V485.262H536.121V470.711Z" transform="translate(-195.35 -428.907)" fill="#6fc05a"/>
      <path id="Path_16" data-name="Path 16" d="M594.278,493.51h27.765v-6.036H594.278v-22.71h29.807V458.64H587.53v64.766h37.535v-6.117H594.278Z" transform="translate(-212.342 -428.907)" fill="#307546"/>
      <path id="Path_17" data-name="Path 17" d="M698.82,458.64h-7.357l-18.545,26.444h-1.24L653.4,458.64h-7.632l21.67,31L643.46,523.406h7.275l20.319-28.656h1.24L692.7,523.406h7.632l-23.89-33.318Z" transform="translate(-226.75 -428.907)" fill="#307546"/>
      <path id="Path_18" data-name="Path 18" d="M765.613,513.652q-6.036,4.454-14.907,4.454a25.983,25.983,0,0,1-11.18-2.227,22.457,22.457,0,0,1-7.981-6.206,26.653,26.653,0,0,1-4.744-8.909,34.5,34.5,0,0,1-1.559-10.393,35.169,35.169,0,0,1,1.6-10.69,27.259,27.259,0,0,1,4.707-8.872,21.44,21.44,0,0,1,7.765-6.028,25.241,25.241,0,0,1,10.78-2.175,26.532,26.532,0,0,1,10.327,1.938,18.746,18.746,0,0,1,7.676,5.813,19.042,19.042,0,0,1,3.712,9.651h6.837a26.8,26.8,0,0,0-4.454-12.465,24.453,24.453,0,0,0-9.71-8.2,36.837,36.837,0,0,0-28.7-.045,27.915,27.915,0,0,0-9.9,7.676,31.842,31.842,0,0,0-5.679,10.69,40.029,40.029,0,0,0-1.811,11.849v1.685a38.739,38.739,0,0,0,1.774,11.314,33.34,33.34,0,0,0,5.635,10.757,28.574,28.574,0,0,0,10.022,8.025,33.063,33.063,0,0,0,14.848,3.066,32.2,32.2,0,0,0,14.774-3.111,25.315,25.315,0,0,0,9.822-8.485,28.613,28.613,0,0,0,4.61-12.019h-6.838Q771.619,509.176,765.613,513.652Z" transform="translate(-246.053 -428.329)" fill="#307546"/>
      <path id="Path_19" data-name="Path 19" d="M816.791,493.51h27.773v-6.036H816.791v-22.71h29.814V458.64H810.05v64.766h37.528v-6.117H816.791Z" transform="translate(-269.665 -428.907)" fill="#307546"/>
      <path id="Path_20" data-name="Path 20" d="M876.908,517.289V458.64H870.16v64.766h35.4v-6.117Z" transform="translate(-285.15 -428.907)" fill="#307546"/>
      <path id="Path_21" data-name="Path 21" d="M147.94,418.59s-1.908,2.9-4.67,8.263c-.809,1.581-1.7,3.378-2.621,5.39-1.767,3.712-3.675,8.166-5.575,13.252-.98,2.6-1.945,5.375-2.88,8.3a191.023,191.023,0,0,0-7.171,30.75q-1.01,6.748-1.537,14.009a182.989,182.989,0,0,0,1.656,40.913H82.15V418.59Z" transform="translate(-82.15 -418.59)" fill="#307546"/>
      <path id="Path_22" data-name="Path 22" d="M225.811,436.019c-7.862,1.4-30.839,6.681-49.465,23.111a259.832,259.832,0,0,0,9.272,49.109c.965-25.456,14.684-56.266,40.193-71.106V539.471H192.924s-21.4-37.654-22.39-103.845c0-2.413-.045-4.878,0-7.365,0-3.155.089-6.37.215-9.651h55.063Z" transform="translate(-104.913 -418.595)" fill="#349855"/>
      <path id="Path_23" data-name="Path 23" d="M153.637,426.853c-.809,1.581-1.7,3.378-2.621,5.39L122.39,418.59h4.818Z" transform="translate(-92.516 -418.59)" fill="#6fc05a"/>
      <path id="Path_24" data-name="Path 24" d="M137.811,445.494c-.98,2.6-1.945,5.375-2.88,8.3l-42.16-35.2h.572Z" transform="translate(-84.886 -418.59)" fill="#6fc05a"/>
      <path id="Path_25" data-name="Path 25" d="M121.385,551.056H110.442L82.15,467.463V463.61Z" transform="translate(-82.15 -430.188)" fill="#6fc05a"/>
      <path id="Path_26" data-name="Path 26" d="M125.023,488.055q-1.01,6.748-1.537,14.009L82.15,433.022v-.8Z" transform="translate(-82.15 -422.101)" fill="#6fc05a"/>
    </g>
  </g>
</svg>
