<svg id="Layer_1" data-name="Layer 1" xmlns="http://www.w3.org/2000/svg" viewBox="0 0 1000 1000"><defs><style>.cls-1{fill:#307546;}.cls-2{fill:#349855;}.cls-3{fill:#6fc05a;}</style></defs><path class="cls-1" d="M526.71,198.33s-9.49,14.47-23.28,41.22c-4.07,7.91-8.52,16.88-13.11,26.9-8.82,18.61-18.31,40.76-27.81,66.16-4.9,13-9.72,26.82-14.39,41.44a950.18,950.18,0,0,0-35.79,153.49q-5.08,33.69-7.69,69.93a913.56,913.56,0,0,0,8.29,204.2H198.33V198.33Z"/><path class="cls-2" d="M801.67,285.29c-39.26,7-153.95,33.38-246.93,115.36,9.42,99.84,27.73,182.27,46.27,245.12,4.82-127,73.31-280.84,200.66-354.91V801.67H637.48S530.71,613.74,525.73,283.33c-.15-12.06-.22-24.34-.07-36.77.07-15.75.45-31.8,1.05-48.23h275Z"/><path class="cls-3" d="M503.43,239.55c-4.07,7.91-8.52,16.88-13.11,26.9L347.45,198.33h24Z"/><path class="cls-3" d="M462.51,332.61c-4.9,13-9.72,26.82-14.39,41.44L237.67,198.33h2.86Z"/><polygon class="cls-3" points="394.17 801.67 339.54 801.67 198.33 384.38 198.33 365.16 394.17 801.67"/><path class="cls-3" d="M412.33,527.54q-5.08,33.69-7.69,69.93L198.33,252.89v-4Z"/></svg>