<svg xmlns="http://www.w3.org/2000/svg" width="158.5" height="158.5" viewBox="0 0 158.5 158.5">
  <g id="Group_48" data-name="Group 48" transform="translate(-1306.75 -467.832)">
    <rect id="Rectangle_28" data-name="Rectangle 28" width="158.5" height="158.5" rx="17" transform="translate(1306.75 467.832)" fill="#fff"/>
    <g id="icon_COLOR" data-name="icon COLOR" transform="translate(1332.023 493.108)">
      <path id="Path_6" data-name="Path 6" d="M257.082,198.33s-1.7,2.589-4.165,7.375c-.728,1.415-1.524,3.02-2.346,4.813-1.578,3.33-3.276,7.293-4.976,11.837q-1.315,3.489-2.575,7.414a170,170,0,0,0-6.4,27.462q-.909,6.028-1.376,12.512a163.451,163.451,0,0,0,1.483,36.535h-38.4V198.33Z" transform="translate(-198.33 -198.33)" fill="#307546"/>
      <path id="Path_7" data-name="Path 7" d="M574.974,213.889c-7.024,1.252-27.544,5.972-44.18,20.64a232.522,232.522,0,0,0,8.278,43.856c.862-22.722,13.116-50.247,35.9-63.5v91.392H545.6s-19.1-33.624-19.994-92.739c-.027-2.158-.039-4.355-.013-6.579.013-2.818.08-5.69.188-8.629h49.2Z" transform="translate(-467.027 -198.33)" fill="#349855"/>
      <path id="Path_8" data-name="Path 8" d="M375.357,205.7c-.728,1.415-1.524,3.02-2.346,4.813L347.45,198.33h4.294Z" transform="translate(-320.77 -198.33)" fill="#6fc05a"/>
      <path id="Path_9" data-name="Path 9" d="M277.9,222.355q-1.315,3.489-2.575,7.414L237.67,198.33h.512Z" transform="translate(-230.631 -198.33)" fill="#6fc05a"/>
      <path id="Path_10" data-name="Path 10" d="M233.369,443.259h-9.774L198.33,368.6V365.16Z" transform="translate(-198.33 -335.311)" fill="#6fc05a"/>
      <path id="Path_11" data-name="Path 11" d="M236.618,298.745q-.909,6.028-1.376,12.512L198.33,249.606v-.716Z" transform="translate(-198.33 -239.844)" fill="#6fc05a"/>
    </g>
  </g>
</svg>
