<svg xmlns="http://www.w3.org/2000/svg" width="1962.104" height="189" viewBox="0 0 1962.104 189">
  <path id="Subtraction_1" data-name="Subtraction 1" d="M2568.552,189H606.448c32.229-14.631,66.169-28.7,100.877-41.82,34.83-13.165,71.272-25.691,108.315-37.228,37.24-11.6,75.98-22.477,115.142-32.333,39.447-9.927,80.278-19.056,121.358-27.134,41.456-8.152,84.173-15.43,126.962-21.632,43.255-6.27,87.651-11.595,131.955-15.827,44.855-4.285,90.725-7.554,136.336-9.719C1493.64,1.113,1540.778,0,1587.5,0s93.86,1.113,140.106,3.307c45.611,2.164,91.481,5.434,136.336,9.719,44.3,4.232,88.7,9.557,131.955,15.827,42.789,6.2,85.506,13.48,126.962,21.632,41.08,8.078,81.911,17.207,121.358,27.134,39.163,9.856,77.9,20.734,115.142,32.333,37.043,11.537,73.486,24.063,108.315,37.228,34.717,13.123,68.656,27.193,100.873,41.819l0,0h0Z" transform="translate(-606.448)" fill="#475f2b"/>
</svg>
